FFmpeg version SVN-r25716, Copyright (c) 2000-2010 the FFmpeg developers  built on Nov 10 2010 12:23:18 with gcc 4.1.2 20080704 (Red Hat 4.1.2-48)  configuration: --enable-libmp3lame --enable-shared --disable-mmx --arch=x86_64  libavutil     50.33. 0 / 50.33. 0  libavcore      0.12. 1 /  0.12. 1  libavcodec    52.94. 4 / 52.94. 4  libavformat   52.84. 0 / 52.84. 0  libavdevice   52. 2. 2 / 52. 2. 2  libavfilter    1.59. 0 /  1.59. 0  libswscale     0.12. 0 /  0.12. 0Input #0, avi, from '/RAID10/data/converted_video_files/11938.avi':  Duration: 00:00:20.75, start: 0.000000, bitrate: 1980 kb/s    Stream #0.0: Video: mpeg4, yuv420p, 720x480 [PAR 1:1 DAR 3:2], 25 tbr, 29.97 tbn, 25 tbc    Stream #0.1: Audio: pcm_s16le, 48000 Hz, 2 channels, s16, 1536 kb/s[buffer @ 0x46d94a0] w:720 h:480 pixfmt:yuv420pOutput #0, flv, to '/RAID10/data/converted_video_files/11938.flv':  Metadata:    encoder         : Lavf52.84.0    Stream #0.0: Video: flv, yuv420p, 720x480 [PAR 1:1 DAR 3:2], q=2-31, 600 kb/s, 1k tbn, 24 tbc    Stream #0.1: Audio: libmp3lame, 22050 Hz, 2 channels, s16, 96 kb/sStream mapping:  Stream #0.0 -> #0.0  Stream #0.1 -> #0.1Press [q] to stop encodingframe=   93 fps=  0 q=2.0 size=     340kB time=4.29 bitrate= 649.0kbits/s dup=0 drop=18    frame=  173 fps=165 q=2.0 size=     692kB time=8.12 bitrate= 698.2kbits/s dup=0 drop=32    frame=  254 fps=163 q=2.0 size=    1112kB time=12.04 bitrate= 756.5kbits/s dup=0 drop=46    frame=  330 fps=159 q=2.0 size=    1558kB time=15.50 bitrate= 823.5kbits/s dup=0 drop=62    frame=  400 fps=155 q=5.2 size=    2022kB time=18.79 bitrate= 881.6kbits/s dup=0 drop=77    frame=  439 fps=153 q=6.1 Lsize=    2185kB time=20.75 bitrate= 862.7kbits/s dup=0 drop=84    video:1922kB audio:244kB global headers:0kB muxing overhead 0.906153%